<svg version="1.0" xmlns="http://www.w3.org/2000/svg"
 width="1280.000000pt" height="1280.000000pt" viewBox="0 0 1280.000000 1280.000000"
 preserveAspectRatio="xMidYMid meet">
<g transform="translate(0.000000,1280.000000) scale(0.100000,-0.100000)"
fill="#000000" stroke="none">
<path d="M1095 12789 c-148 -27 -217 -43 -285 -66 -319 -109 -583 -359 -711
-674 -36 -88 -56 -163 -80 -304 -18 -107 -19 -249 -19 -5345 0 -5096 1 -5238
19 -5345 39 -227 83 -346 186 -506 127 -196 325 -360 546 -450 88 -36 163 -56
304 -80 107 -18 249 -19 5345 -19 5096 0 5238 1 5345 19 141 24 216 44 304 80
221 90 419 254 546 450 103 160 147 279 186 506 18 107 19 249 19 5345 0 5096
-1 5238 -19 5345 -24 141 -44 216 -80 304 -90 221 -254 419 -450 546 -160 103
-279 147 -506 186 -107 18 -247 19 -5355 18 -3064 -1 -5266 -5 -5295 -10z
m10639 -654 c193 -50 351 -208 401 -401 13 -52 15 -633 15 -5334 0 -4701 -2
-5282 -15 -5334 -50 -193 -208 -351 -401 -401 -52 -13 -633 -15 -5334 -15
-4701 0 -5282 2 -5334 15 -193 50 -351 208 -401 401 -13 52 -15 633 -15 5334
0 4701 2 5282 15 5334 50 191 207 349 396 400 47 13 761 15 5334 15 4707 1
5287 -1 5339 -14z"/>
<path d="M10253 10500 c-74 -14 -186 -54 -252 -91 -31 -18 -656 -416 -1389
-886 l-1333 -855 -2307 386 c-1269 212 -2321 387 -2338 388 -28 3 -69 -32
-432 -362 -221 -201 -401 -369 -399 -374 1 -4 830 -268 1840 -586 1011 -317
1840 -580 1844 -584 4 -3 2 -10 -3 -15 -10 -10 -1930 -1226 -2000 -1267 l-42
-25 -468 117 -469 117 -372 -244 c-205 -134 -373 -246 -373 -249 1 -5 1641
-1269 1665 -1282 8 -5 1351 837 3651 2288 2002 1263 3660 2312 3686 2330 78
58 184 179 222 255 101 202 83 441 -49 639 -89 134 -244 246 -394 285 -79 20
-218 27 -288 15z"/>
<path d="M1380 2155 l0 -385 2955 0 2955 0 0 385 0 385 -2955 0 -2955 0 0
-385z"/>
</g>
</svg>
